<?xml version="1.0" encoding="UTF-8" standalone="no"?>
<!-- Created with Inkscape (http://www.inkscape.org/) -->

<svg
   xmlns:osb="http://www.openswatchbook.org/uri/2009/osb"
   xmlns:dc="http://purl.org/dc/elements/1.1/"
   xmlns:cc="http://creativecommons.org/ns#"
   xmlns:rdf="http://www.w3.org/1999/02/22-rdf-syntax-ns#"
   xmlns:svg="http://www.w3.org/2000/svg"
   xmlns="http://www.w3.org/2000/svg"
   xmlns:xlink="http://www.w3.org/1999/xlink"
   xmlns:sodipodi="http://sodipodi.sourceforge.net/DTD/sodipodi-0.dtd"
   xmlns:inkscape="http://www.inkscape.org/namespaces/inkscape"
   width="172.50125mm"
   height="172.50119mm"
   viewBox="0 0 172.50125 172.50119"
   version="1.1"
   id="svg8"
   inkscape:version="0.92.3 (2405546, 2018-03-11)"
   sodipodi:docname="icon_opacity_0.svg"
   inkscape:export-filename="D:\Documents\bakule\web-server\webapp\static\img\icon.png"
   inkscape:export-xdpi="75.389626"
   inkscape:export-ydpi="75.389626">
  <defs
     id="defs2">
    <pattern
       inkscape:collect="always"
       xlink:href="#Strips1_1"
       id="pattern6081"
       patternTransform="matrix(10,0,0,10,-0.1889881,0.09449405)" />
    <pattern
       inkscape:collect="always"
       xlink:href="#Strips1_1"
       id="pattern6079"
       patternTransform="matrix(10,0,0,10,-0.1889881,0.09449405)" />
    <pattern
       inkscape:isstock="true"
       inkscape:stockid="Stripes 1:1"
       id="Strips1_1"
       patternTransform="translate(0,0) scale(10,10)"
       height="1"
       width="2"
       patternUnits="userSpaceOnUse"
       inkscape:collect="always">
      <rect
         id="rect5284"
         height="2"
         width="1"
         y="-0.5"
         x="0"
         style="fill:black;stroke:none" />
    </pattern>
    <linearGradient
       id="linearGradient6024"
       osb:paint="solid">
      <stop
         style="stop-color:#ffffff;stop-opacity:1;"
         offset="0"
         id="stop6022" />
    </linearGradient>
    <linearGradient
       id="linearGradient6014"
       osb:paint="solid">
      <stop
         style="stop-color:#ffffff;stop-opacity:1;"
         offset="0"
         id="stop6012" />
    </linearGradient>
    <linearGradient
       id="linearGradient6004"
       osb:paint="solid">
      <stop
         style="stop-color:#ffffff;stop-opacity:1;"
         offset="0"
         id="stop6002" />
    </linearGradient>
  </defs>
  <sodipodi:namedview
     id="base"
     pagecolor="#ffffff"
     bordercolor="#666666"
     borderopacity="1.0"
     inkscape:pageopacity="0.0"
     inkscape:pageshadow="2"
     inkscape:zoom="0.70000001"
     inkscape:cx="111.86253"
     inkscape:cy="111.3559"
     inkscape:document-units="mm"
     inkscape:current-layer="layer1"
     showgrid="true"
     inkscape:measure-start="52.5279,660.64"
     inkscape:measure-end="52.5279,659.63"
     inkscape:snap-grids="true"
     inkscape:snap-bbox="true"
     showguides="true"
     inkscape:window-width="1920"
     inkscape:window-height="1017"
     inkscape:window-x="-8"
     inkscape:window-y="-8"
     inkscape:window-maximized="1"
     inkscape:snap-page="false"
     inkscape:snap-to-guides="true">
    <inkscape:grid
       type="xygrid"
       id="grid825"
       originx="-293.88212"
       originy="-375.70831" />
  </sodipodi:namedview>
  <metadata
     id="metadata5">
    <rdf:RDF>
      <cc:Work
         rdf:about="">
        <dc:format>image/svg+xml</dc:format>
        <dc:type
           rdf:resource="http://purl.org/dc/dcmitype/StillImage" />
        <dc:title></dc:title>
      </cc:Work>
    </rdf:RDF>
  </metadata>
  <g
     inkscape:groupmode="layer"
     id="layer2"
     inkscape:label="help"
     style="display:none"
     transform="translate(-293.88211,251.20952)">
    <rect
       style="opacity:0.26600001;fill:url(#pattern6079);fill-opacity:1;fill-rule:nonzero;stroke:url(#pattern6081);stroke-width:0.26499999;stroke-miterlimit:4;stroke-dasharray:none"
       id="rect6045"
       width="362.47916"
       height="195.79167"
       x="7.7485118"
       y="-266.46802" />
  </g>
  <g
     inkscape:label="text"
     inkscape:groupmode="layer"
     id="layer1"
     transform="translate(-293.88211,251.20952)">
    <rect
       style="opacity:0;fill:#ffffff;fill-opacity:1;stroke:#000000;stroke-width:1.16036856;stroke-opacity:1"
       id="rect851"
       width="172.50119"
       height="172.50119"
       x="293.88214"
       y="-251.20952" />
    <a
       id="a827"
       transform="matrix(1.3393522,0,0,1.3393522,247.53109,-324.60415)">
      <g
         aria-label="DEEP TOWN  "
         style="font-style:normal;font-variant:normal;font-weight:normal;font-stretch:normal;font-size:21.16666603px;line-height:1.25;font-family:'Arial Rounded MT Bold';-inkscape-font-specification:'Arial Rounded MT Bold, Normal';font-variant-ligatures:normal;font-variant-caps:normal;font-variant-numeric:normal;font-feature-settings:normal;text-align:start;letter-spacing:0px;word-spacing:0px;writing-mode:lr-tb;text-anchor:start;fill:#000000;fill-opacity:1;stroke:none;stroke-width:0.26458332"
         id="text817">
        <path
           d="m 44.367859,104.67385 v 15.04817 h -4.905816 -0.286632 q -0.396875,0 -0.617361,-0.14331 -0.209462,-0.15434 -0.209462,-0.42995 0,-0.452 0.440973,-0.59531 0.363802,-0.12127 0.418923,-0.14332 0.06615,-0.0331 0.132292,-0.13229 0.132292,-0.17639 0.132292,-0.56224 v -11.03533 q 0,-0.38585 -0.132292,-0.56224 -0.06615,-0.0992 -0.132292,-0.12127 -0.05512,-0.0331 -0.418923,-0.15434 -0.440973,-0.14331 -0.440973,-0.59531 0,-0.27561 0.209462,-0.41892 0.220486,-0.15434 0.617361,-0.15434 h 0.286632 z m 2.22691,11.89522 v -8.69818 q 0,-0.80477 -0.23151,-1.27881 -0.143316,-0.30869 -0.352778,-0.452 -0.209462,-0.14332 -0.661459,-0.24254 v -1.22369 q 0.584289,0 0.992188,0.0441 1.400087,0.15434 2.711979,1.19063 1.300868,1.00321 1.929254,2.61276 0.650434,1.6316 0.650434,3.61597 0,2.24896 -0.826823,4.00182 -0.826823,1.74184 -2.370226,2.74506 -0.749653,0.48507 -1.400087,0.66145 -0.63941,0.17639 -1.686719,0.17639 v -1.19062 q 0.463021,-0.12127 0.63941,-0.22049 0.187413,-0.0992 0.319705,-0.30868 0.165365,-0.24253 0.220486,-0.54019 0.06615,-0.30868 0.06615,-0.89297 z"
           style="font-style:normal;font-variant:normal;font-weight:normal;font-stretch:normal;font-size:22.57777786px;font-family:Stencil;-inkscape-font-specification:'Stencil, Normal';font-variant-ligatures:normal;font-variant-caps:normal;font-variant-numeric:normal;font-feature-settings:normal;text-align:start;writing-mode:lr-tb;text-anchor:start;stroke-width:0.26458332"
           id="path837"
           inkscape:connector-curvature="0" />
        <path
           d="m 59.008137,104.67385 v 15.04817 h -4.905816 -0.286632 q -0.396875,0 -0.617361,-0.14331 -0.209462,-0.15434 -0.209462,-0.42995 0,-0.452 0.440972,-0.59531 0.363803,-0.12127 0.418924,-0.14332 0.06615,-0.0331 0.132292,-0.13229 0.132291,-0.17639 0.132291,-0.56224 v -11.03533 q 0,-0.38585 -0.132291,-0.56224 -0.06615,-0.0992 -0.132292,-0.12127 -0.05512,-0.0331 -0.418924,-0.15434 -0.440972,-0.14331 -0.440972,-0.59531 0,-0.27561 0.209462,-0.41892 0.220486,-0.15434 0.617361,-0.15434 h 0.286632 z m 0.981163,0 h 4.442795 v 3.9026 q 0,0.34175 -0.132291,0.49609 -0.132292,0.15434 -0.418924,0.15434 -0.242535,0 -0.352778,-0.0992 -0.110243,-0.0992 -0.209461,-0.4079 -0.418924,-1.27882 -1.234723,-1.95131 -0.804774,-0.67248 -2.094618,-0.80477 z m -0.05512,8.02569 v -1.27882 q 0.63941,-0.30868 0.94809,-0.67248 0.308681,-0.3638 0.451997,-0.97014 0.08819,-0.41892 0.23151,-0.57326 0.143316,-0.16537 0.407899,-0.16537 0.352778,0 0.48507,0.27561 0.07717,0.14331 0.07717,0.65043 v 4.20026 q 0,0.51815 -0.121267,0.71658 -0.110244,0.19844 -0.418924,0.19844 -0.253559,0 -0.396875,-0.15434 -0.143316,-0.15434 -0.23151,-0.51814 -0.187414,-0.76068 -0.540191,-1.16858 -0.341754,-0.4079 -0.892969,-0.54019 z m 0.06615,7.02248 v -1.19062 q 0.716579,-0.11025 1.1796,-0.30868 0.474045,-0.19844 0.948091,-0.60634 0.474045,-0.4079 0.749652,-0.83785 0.286632,-0.44097 0.540191,-1.15755 0.121268,-0.35278 0.253559,-0.47404 0.132292,-0.1323 0.363802,-0.1323 0.308681,0 0.429948,0.18742 0.121268,0.17639 0.121268,0.62838 v 3.89158 z"
           style="font-style:normal;font-variant:normal;font-weight:normal;font-stretch:normal;font-size:22.57777786px;font-family:Stencil;-inkscape-font-specification:'Stencil, Normal';font-variant-ligatures:normal;font-variant-caps:normal;font-variant-numeric:normal;font-feature-settings:normal;text-align:start;writing-mode:lr-tb;text-anchor:start;stroke-width:0.26458332"
           id="path839"
           inkscape:connector-curvature="0" />
        <path
           d="m 72.281401,104.67385 v 15.04817 h -4.905816 -0.286632 q -0.396875,0 -0.617361,-0.14331 -0.209462,-0.15434 -0.209462,-0.42995 0,-0.452 0.440972,-0.59531 0.363802,-0.12127 0.418924,-0.14332 0.06615,-0.0331 0.132292,-0.13229 0.132291,-0.17639 0.132291,-0.56224 v -11.03533 q 0,-0.38585 -0.132291,-0.56224 -0.06615,-0.0992 -0.132292,-0.12127 -0.05512,-0.0331 -0.418924,-0.15434 -0.440972,-0.14331 -0.440972,-0.59531 0,-0.27561 0.209462,-0.41892 0.220486,-0.15434 0.617361,-0.15434 h 0.286632 z m 0.981163,0 h 4.442795 v 3.9026 q 0,0.34175 -0.132291,0.49609 -0.132292,0.15434 -0.418924,0.15434 -0.242535,0 -0.352778,-0.0992 -0.110243,-0.0992 -0.209461,-0.4079 -0.418924,-1.27882 -1.234723,-1.95131 -0.804774,-0.67248 -2.094618,-0.80477 z m -0.05512,8.02569 v -1.27882 q 0.639409,-0.30868 0.94809,-0.67248 0.308681,-0.3638 0.451997,-0.97014 0.08819,-0.41892 0.23151,-0.57326 0.143316,-0.16537 0.407899,-0.16537 0.352778,0 0.48507,0.27561 0.07717,0.14331 0.07717,0.65043 v 4.20026 q 0,0.51815 -0.121268,0.71658 -0.110243,0.19844 -0.418923,0.19844 -0.253559,0 -0.396875,-0.15434 -0.143316,-0.15434 -0.231511,-0.51814 -0.187413,-0.76068 -0.540191,-1.16858 -0.341753,-0.4079 -0.892968,-0.54019 z m 0.06615,7.02248 v -1.19062 q 0.716579,-0.11025 1.1796,-0.30868 0.474045,-0.19844 0.948091,-0.60634 0.474045,-0.4079 0.749652,-0.83785 0.286632,-0.44097 0.540191,-1.15755 0.121268,-0.35278 0.253559,-0.47404 0.132292,-0.1323 0.363802,-0.1323 0.308681,0 0.429948,0.18742 0.121268,0.17639 0.121268,0.62838 v 3.89158 z"
           style="font-style:normal;font-variant:normal;font-weight:normal;font-stretch:normal;font-size:22.57777786px;font-family:Stencil;-inkscape-font-specification:'Stencil, Normal';font-variant-ligatures:normal;font-variant-caps:normal;font-variant-numeric:normal;font-feature-settings:normal;text-align:start;writing-mode:lr-tb;text-anchor:start;stroke-width:0.26458332"
           id="path841"
           inkscape:connector-curvature="0" />
        <path
           d="m 85.554665,104.67385 v 12.95355 q 0,0.42995 0.165365,0.61737 0.08819,0.11024 0.165364,0.14331 0.07717,0.022 0.507118,0.13229 0.529167,0.12127 0.529167,0.60634 0,0.28663 -0.286632,0.46302 -0.209462,0.13229 -0.694531,0.13229 h -0.374827 -4.91684 -0.286632 q -0.396875,0 -0.617361,-0.14331 -0.209462,-0.15434 -0.209462,-0.42995 0,-0.452 0.440972,-0.59531 0.363802,-0.12127 0.418924,-0.14332 0.06615,-0.0331 0.132292,-0.13229 0.132291,-0.17639 0.132291,-0.56224 v -11.03533 q 0,-0.38585 -0.132291,-0.56224 -0.06615,-0.0992 -0.132292,-0.12127 -0.05512,-0.0331 -0.418924,-0.15434 -0.440972,-0.14331 -0.440972,-0.59531 0,-0.27561 0.209462,-0.41892 0.220486,-0.15434 0.617361,-0.15434 h 0.286632 z m 0.937066,9.28246 v -1.1796 q 0.474045,-0.11024 0.661458,-0.23151 0.198438,-0.12127 0.341754,-0.37483 0.23151,-0.42994 0.23151,-1.15755 v -3.52778 q 0,-0.51814 -0.07717,-0.7717 -0.07717,-0.25356 -0.308681,-0.46302 -0.319704,-0.30868 -0.859895,-0.38585 v -1.19062 q 2.271007,0 3.351389,0.42994 1.245746,0.4961 1.97335,1.52136 0.738629,1.04731 0.738629,2.56866 0,1.69774 -0.749653,2.77813 -0.749653,1.06935 -2.094618,1.57647 -1.113455,0.4079 -3.208073,0.4079 z"
           style="font-style:normal;font-variant:normal;font-weight:normal;font-stretch:normal;font-size:22.57777786px;font-family:Stencil;-inkscape-font-specification:'Stencil, Normal';font-variant-ligatures:normal;font-variant-caps:normal;font-variant-numeric:normal;font-feature-settings:normal;text-align:start;writing-mode:lr-tb;text-anchor:start;stroke-width:0.26458332"
           id="path843"
           inkscape:connector-curvature="0" />
        <path
           d="m 107.79069,104.67385 v 12.95355 q 0,0.42995 0.16536,0.61737 0.0882,0.11024 0.16537,0.14331 0.0772,0.022 0.50712,0.13229 0.52916,0.12127 0.52916,0.60634 0,0.28663 -0.28663,0.46302 -0.20946,0.13229 -0.70556,0.13229 h -0.3638 -4.91684 -0.3638 q -0.48507,0 -0.73863,-0.14331 -0.24253,-0.15434 -0.24253,-0.452 0,-0.48507 0.52916,-0.60634 0.42995,-0.11024 0.50712,-0.13229 0.0772,-0.0331 0.15434,-0.14331 0.16537,-0.18742 0.16537,-0.61737 v -12.95355 z m 3.81441,0 v 4.50894 q 0,0.3197 -0.18742,0.51814 -0.17638,0.19844 -0.46302,0.19844 -0.2756,0 -0.46302,-0.17639 -0.17639,-0.18742 -0.23151,-0.50712 l -0.11024,-0.67248 q -0.16536,-1.02526 -0.63941,-1.77492 -0.29766,-0.46302 -0.80477,-0.76067 v -1.33394 z m -12.501565,0 h 2.899395 v 1.33394 q -0.51814,0.29765 -0.80478,0.76067 -0.47404,0.74966 -0.63941,1.77492 l -0.11024,0.67248 q -0.0551,0.3197 -0.24253,0.50712 -0.17639,0.17639 -0.452001,0.17639 -0.286632,0 -0.474045,-0.19844 -0.176389,-0.19844 -0.176389,-0.51814 z"
           style="font-style:normal;font-variant:normal;font-weight:normal;font-stretch:normal;font-size:22.57777786px;font-family:Stencil;-inkscape-font-specification:'Stencil, Normal';font-variant-ligatures:normal;font-variant-caps:normal;font-variant-numeric:normal;font-feature-settings:normal;text-align:start;writing-mode:lr-tb;text-anchor:start;stroke-width:0.26458332"
           id="path845"
           inkscape:connector-curvature="0" />
        <path
           d="m 118.75988,105.56681 q -0.56224,0.19844 -0.79375,0.5402 -0.23151,0.34175 -0.23151,1.00321 v 9.85573 q 0,0.97014 0.26458,1.36701 0.20946,0.33073 0.76068,0.47405 v 1.21267 q -2.4474,-0.19844 -4.10105,-1.84106 -2.14974,-2.13872 -2.14974,-5.96415 0,-1.91823 0.56224,-3.46163 0.57327,-1.55443 1.68672,-2.63481 0.84887,-0.82682 1.83004,-1.25677 0.98116,-0.42995 2.17179,-0.48507 z m 0.90399,0 v -1.19062 q 1.19062,0.0551 2.17179,0.48507 0.99218,0.42995 1.84106,1.25677 2.24895,2.19384 2.24895,6.09644 0,3.82543 -2.14973,5.96415 -1.65365,1.65365 -4.11207,1.84106 v -1.21267 q 0.28663,-0.0662 0.44097,-0.16537 0.16537,-0.11024 0.29766,-0.30868 0.29765,-0.452 0.29765,-1.36701 v -9.85573 q 0,-0.58429 -0.19843,-0.92604 -0.1323,-0.23151 -0.31971,-0.36381 -0.17639,-0.13229 -0.51814,-0.25356 z"
           style="font-style:normal;font-variant:normal;font-weight:normal;font-stretch:normal;font-size:22.57777786px;font-family:Stencil;-inkscape-font-specification:'Stencil, Normal';font-variant-ligatures:normal;font-variant-caps:normal;font-variant-numeric:normal;font-feature-settings:normal;text-align:start;writing-mode:lr-tb;text-anchor:start;stroke-width:0.26458332"
           id="path847"
           inkscape:connector-curvature="0" />
        <path
           d="m 134.97663,114.38626 -1.33394,5.33576 h -2.38125 l -3.54983,-12.95356 q -0.12127,-0.44097 -0.23151,-0.59531 -0.0992,-0.15434 -0.35278,-0.25356 -0.44097,-0.17639 -0.44097,-0.58429 0,-0.3197 0.27561,-0.48507 0.27561,-0.17638 0.7717,-0.17638 h 5.15938 q 0.48506,0 0.66145,0.13229 0.23151,0.16536 0.23151,0.45199 0,0.34176 -0.38585,0.57327 -0.3197,0.18741 -0.41892,0.3197 -0.0882,0.12127 -0.0882,0.37483 0,0.12127 0.0331,0.24253 z m 1.04731,-9.71241 h 2.271 l 2.64584,10.03211 -1.25677,5.01606 h -2.4033 l -2.56866,-9.69036 z m 5.33576,8.26823 -0.57326,-2.23794 0.80477,-3.26319 q 0.0992,-0.38585 0.0992,-0.59532 0,-0.33073 -0.18741,-0.56224 -0.17639,-0.24253 -0.59531,-0.45199 -0.27561,-0.14332 -0.38586,-0.27561 -0.0992,-0.13229 -0.0992,-0.34175 0,-0.28664 0.17638,-0.4079 0.18742,-0.13229 0.58429,-0.13229 h 2.62379 q 0.45199,0 0.62838,0.13229 0.18742,0.12126 0.18742,0.41892 0,0.17639 -0.0992,0.29766 -0.0882,0.11024 -0.30868,0.20946 -0.4961,0.22049 -0.72761,0.46302 -0.50712,0.50712 -0.76067,1.46623 z"
           style="font-style:normal;font-variant:normal;font-weight:normal;font-stretch:normal;font-size:22.57777786px;font-family:Stencil;-inkscape-font-specification:'Stencil, Normal';font-variant-ligatures:normal;font-variant-caps:normal;font-variant-numeric:normal;font-feature-settings:normal;text-align:start;writing-mode:lr-tb;text-anchor:start;stroke-width:0.26458332"
           id="path849"
           inkscape:connector-curvature="0" />
        <path
           d="m 152.09737,104.67385 5.86493,10.18645 v 4.86172 h -3.00963 l -7.48551,-12.89843 q -0.24253,-0.41893 -0.39687,-0.58429 -0.15434,-0.16537 -0.39688,-0.24254 l -0.41892,-0.15434 q -0.16537,-0.0551 -0.26458,-0.19844 -0.0992,-0.14331 -0.0992,-0.3197 0,-0.18741 0.0992,-0.34175 0.0992,-0.16537 0.26458,-0.23151 0.18741,-0.0772 1.01424,-0.0772 z m -4.61918,3.86953 1.16857,1.94027 v 5.90903 q 0,0.7717 0.25356,1.2678 0.26459,0.49609 0.82683,0.8158 l 0.33072,0.18741 q 0.28664,0.16536 0.28664,0.49609 0,0.25356 -0.20947,0.41893 -0.17638,0.14331 -0.7276,0.14331 h -2.54661 q -1.00322,0 -1.00322,-0.57326 0,-0.19844 0.0992,-0.30868 0.11025,-0.12127 0.46302,-0.31971 1.05834,-0.58428 1.05834,-2.12769 z m 10.48411,4.55304 -1.16857,-1.97336 v -3.05373 q 0,-0.92604 -0.27561,-1.41111 -0.26459,-0.49609 -0.94809,-0.84887 -0.23151,-0.11024 -0.31971,-0.23151 -0.0882,-0.13229 -0.0882,-0.33073 0,-0.29766 0.18741,-0.42995 0.19844,-0.14331 0.62839,-0.14331 h 2.75607 q 0.56224,0 0.73863,0.17638 0.18741,0.17639 0.18741,0.41893 0,0.23151 -0.11024,0.35278 -0.0992,0.11024 -0.49609,0.30868 -0.58429,0.29765 -0.88195,0.91501 -0.20946,0.452 -0.20946,1.2237 z"
           style="font-style:normal;font-variant:normal;font-weight:normal;font-stretch:normal;font-size:22.57777786px;font-family:Stencil;-inkscape-font-specification:'Stencil, Normal';font-variant-ligatures:normal;font-variant-caps:normal;font-variant-numeric:normal;font-feature-settings:normal;text-align:start;writing-mode:lr-tb;text-anchor:start;stroke-width:0.26458332"
           id="path851"
           inkscape:connector-curvature="0" />
      </g>
    </a>
    <a
       id="a4535"
       transform="matrix(1.3393522,0,0,1.3393522,113.26933,-302.99728)">
      <g
         aria-label="ADMIN TOOLS"
         style="font-style:normal;font-variant:normal;font-weight:normal;font-stretch:normal;font-size:21.16666603px;line-height:1.25;font-family:'Arial Rounded MT Bold';-inkscape-font-specification:'Arial Rounded MT Bold, Normal';font-variant-ligatures:normal;font-variant-caps:normal;font-variant-numeric:normal;font-feature-settings:normal;text-align:start;letter-spacing:0px;word-spacing:0px;writing-mode:lr-tb;text-anchor:start;opacity:0.95;fill:#000000;fill-opacity:1;stroke:none;stroke-width:0.26458332"
         id="text823">
        <path
           d="m 166.41222,105.8568 h 2.22139 l 1.53238,6.47678 q 0.0441,0.17088 0.0992,0.30317 0.0496,0.10473 0.22049,0.17088 0.14331,0.0606 0.19844,0.12126 0.0551,0.0606 0.0551,0.16537 0,0.28663 -0.42995,0.28663 h -2.75057 q -0.16536,0 -0.26458,-0.0772 -0.0992,-0.0827 -0.0992,-0.21497 0,-0.11025 0.0441,-0.16537 0.0441,-0.0551 0.19844,-0.1378 0.11024,-0.0551 0.15434,-0.12127 0.0441,-0.0662 0.0441,-0.16536 0,-0.0937 -0.0165,-0.16537 l -0.17639,-0.79926 h -1.53789 l 0.14883,-0.65595 h 1.23472 l -1.01424,-4.48138 z m -0.38034,1.40009 0.28112,1.14101 -0.97565,3.56085 q -0.0441,0.15434 -0.0441,0.28664 0,0.34726 0.32522,0.49609 l 0.19292,0.0882 q 0.1819,0.0827 0.1819,0.27561 0,0.27561 -0.40238,0.27561 h -1.40009 q -0.20395,0 -0.32522,-0.0827 -0.11575,-0.0882 -0.11575,-0.23702 0,-0.15986 0.24253,-0.26459 0.226,-0.0992 0.33073,-0.17639 0.11024,-0.0827 0.20946,-0.22048 0.15434,-0.226 0.25356,-0.60083 z"
           style="font-style:normal;font-variant:normal;font-weight:normal;font-stretch:normal;font-size:11.28888893px;font-family:Stencil;-inkscape-font-specification:'Stencil, Normal';font-variant-ligatures:normal;font-variant-caps:normal;font-variant-numeric:normal;font-feature-settings:normal;text-align:start;writing-mode:lr-tb;text-anchor:start;stroke-width:0.26458332"
           id="path854"
           inkscape:connector-curvature="0" />
        <path
           d="m 174.20089,105.8568 v 7.52409 h -2.45291 -0.14331 q -0.19844,0 -0.30869,-0.0717 -0.10473,-0.0772 -0.10473,-0.21497 0,-0.226 0.22049,-0.29766 0.1819,-0.0606 0.20946,-0.0717 0.0331,-0.0165 0.0662,-0.0661 0.0661,-0.0882 0.0661,-0.28112 v -5.51767 q 0,-0.19292 -0.0661,-0.28112 -0.0331,-0.0496 -0.0662,-0.0606 -0.0276,-0.0165 -0.20946,-0.0772 -0.22049,-0.0717 -0.22049,-0.29766 0,-0.1378 0.10473,-0.20946 0.11025,-0.0772 0.30869,-0.0772 h 0.14331 z m 1.11345,5.94761 v -4.34908 q 0,-0.40239 -0.11575,-0.63941 -0.0717,-0.15434 -0.17639,-0.226 -0.10473,-0.0717 -0.33073,-0.12127 v -0.61185 q 0.29214,0 0.49609,0.022 0.70005,0.0772 1.35599,0.59531 0.65044,0.50161 0.96463,1.30638 0.32522,0.8158 0.32522,1.80799 0,1.12448 -0.41341,2.00091 -0.41341,0.87092 -1.18512,1.37253 -0.37482,0.24253 -0.70004,0.33073 -0.3197,0.0882 -0.84336,0.0882 v -0.59531 q 0.23151,-0.0606 0.31971,-0.11025 0.0937,-0.0496 0.15985,-0.15434 0.0827,-0.12126 0.11024,-0.27009 0.0331,-0.15434 0.0331,-0.44649 z"
           style="font-style:normal;font-variant:normal;font-weight:normal;font-stretch:normal;font-size:11.28888893px;font-family:Stencil;-inkscape-font-specification:'Stencil, Normal';font-variant-ligatures:normal;font-variant-caps:normal;font-variant-numeric:normal;font-feature-settings:normal;text-align:start;writing-mode:lr-tb;text-anchor:start;stroke-width:0.26458332"
           id="path856"
           inkscape:connector-curvature="0" />
        <path
           d="m 183.43926,105.8568 h 2.44739 0.14883 q 0.41341,0 0.41341,0.28663 0,0.226 -0.22048,0.29766 -0.1819,0.0606 -0.21498,0.0772 -0.0276,0.011 -0.0606,0.0606 -0.0661,0.0882 -0.0661,0.28112 v 5.51767 q 0,0.19292 0.0661,0.28112 0.0331,0.0496 0.0606,0.0661 0.0331,0.011 0.21498,0.0717 0.22048,0.0717 0.22048,0.29766 0,0.28663 -0.41341,0.28663 h -0.14883 -2.4529 -0.18191 q -0.24253,0 -0.36931,-0.0717 -0.12127,-0.0772 -0.12127,-0.226 0,-0.24253 0.26459,-0.30316 0.21497,-0.0551 0.25356,-0.0661 0.0386,-0.0165 0.0772,-0.0662 0.0827,-0.0992 0.0827,-0.31419 z m -2.02847,0 1.08589,3.09232 0.47956,-1.67018 v 1.83003 l -1.27331,4.27192 h -0.29214 l -2.13872,-6.34449 q -0.11024,-0.3197 -0.23151,-0.42995 -0.0717,-0.0716 -0.24805,-0.10473 -0.35829,-0.0772 -0.35829,-0.34175 0,-0.14332 0.0992,-0.22049 0.10473,-0.0827 0.29766,-0.0827 z m -2.13872,2.53559 0.58429,1.66467 v 1.65916 q 0,0.25356 0.0165,0.3638 0.022,0.11024 0.0882,0.24254 0.11575,0.24253 0.3197,0.3638 l 0.20395,0.13229 q 0.20947,0.12678 0.20947,0.28112 0,0.28112 -0.41342,0.28112 h -1.38355 q -0.41341,0 -0.41341,-0.27561 0,-0.0882 0.0331,-0.13229 0.0386,-0.0496 0.14331,-0.11024 0.61185,-0.33073 0.61185,-1.14653 z"
           style="font-style:normal;font-variant:normal;font-weight:normal;font-stretch:normal;font-size:11.28888893px;font-family:Stencil;-inkscape-font-specification:'Stencil, Normal';font-variant-ligatures:normal;font-variant-caps:normal;font-variant-numeric:normal;font-feature-settings:normal;text-align:start;writing-mode:lr-tb;text-anchor:start;stroke-width:0.26458332"
           id="path858"
           inkscape:connector-curvature="0" />
        <path
           d="m 190.36803,113.38089 h -2.45842 -0.14331 q -0.19844,0 -0.30868,-0.0717 -0.10474,-0.0772 -0.10474,-0.21497 0,-0.226 0.22049,-0.29766 0.1819,-0.0606 0.20946,-0.0717 0.0331,-0.0165 0.0662,-0.0661 0.0661,-0.0882 0.0661,-0.28112 v -5.51767 q 0,-0.19292 -0.0661,-0.28112 -0.0331,-0.0496 -0.0662,-0.0606 -0.0276,-0.0165 -0.20946,-0.0772 -0.22049,-0.0717 -0.22049,-0.29766 0,-0.1378 0.10474,-0.20946 0.11024,-0.0772 0.30868,-0.0772 h 0.14331 2.45842 0.14332 q 0.19844,0 0.30317,0.0772 0.11024,0.0717 0.11024,0.20946 0,0.226 -0.22049,0.29766 -0.1819,0.0606 -0.21497,0.0772 -0.0276,0.011 -0.0606,0.0606 -0.0662,0.0882 -0.0662,0.28112 v 5.51767 q 0,0.19292 0.0662,0.28112 0.0331,0.0496 0.0606,0.0661 0.0331,0.011 0.21497,0.0717 0.22049,0.0717 0.22049,0.29766 0,0.1378 -0.11024,0.21497 -0.10473,0.0717 -0.30317,0.0717 z"
           style="font-style:normal;font-variant:normal;font-weight:normal;font-stretch:normal;font-size:11.28888893px;font-family:Stencil;-inkscape-font-specification:'Stencil, Normal';font-variant-ligatures:normal;font-variant-caps:normal;font-variant-numeric:normal;font-feature-settings:normal;text-align:start;writing-mode:lr-tb;text-anchor:start;stroke-width:0.26458332"
           id="path860"
           inkscape:connector-curvature="0" />
        <path
           d="m 194.94863,105.8568 2.93247,5.09323 v 2.43086 h -1.50482 l -3.74275,-6.44922 q -0.12127,-0.20946 -0.19844,-0.29214 -0.0772,-0.0827 -0.19844,-0.12127 l -0.20946,-0.0772 q -0.0827,-0.0276 -0.13229,-0.0992 -0.0496,-0.0717 -0.0496,-0.15985 0,-0.0937 0.0496,-0.17088 0.0496,-0.0827 0.13229,-0.11575 0.0937,-0.0386 0.50712,-0.0386 z m -2.30959,1.93477 0.58429,0.97014 v 2.95451 q 0,0.38585 0.12678,0.6339 0.13229,0.24804 0.41341,0.4079 l 0.16536,0.0937 q 0.14332,0.0827 0.14332,0.24805 0,0.12678 -0.10473,0.20946 -0.0882,0.0717 -0.3638,0.0717 h -1.27331 q -0.50161,0 -0.50161,-0.28663 0,-0.0992 0.0496,-0.15434 0.0551,-0.0606 0.23151,-0.15985 0.52917,-0.29215 0.52917,-1.06385 z m 5.24206,2.27652 -0.58429,-0.98668 v -1.52687 q 0,-0.46302 -0.13781,-0.70555 -0.13229,-0.24805 -0.47404,-0.42444 -0.11576,-0.0551 -0.15985,-0.11575 -0.0441,-0.0662 -0.0441,-0.16537 0,-0.14882 0.0937,-0.21497 0.0992,-0.0717 0.31419,-0.0717 h 1.37804 q 0.28112,0 0.36931,0.0882 0.0937,0.0882 0.0937,0.20946 0,0.11575 -0.0551,0.17639 -0.0496,0.0551 -0.24805,0.15434 -0.29214,0.14882 -0.44097,0.45751 -0.10473,0.22599 -0.10473,0.61184 z"
           style="font-style:normal;font-variant:normal;font-weight:normal;font-stretch:normal;font-size:11.28888893px;font-family:Stencil;-inkscape-font-specification:'Stencil, Normal';font-variant-ligatures:normal;font-variant-caps:normal;font-variant-numeric:normal;font-feature-settings:normal;text-align:start;writing-mode:lr-tb;text-anchor:start;stroke-width:0.26458332"
           id="path862"
           inkscape:connector-curvature="0" />
        <path
           d="m 206.35328,105.8568 v 6.47678 q 0,0.21497 0.0827,0.30868 0.0441,0.0551 0.0827,0.0717 0.0386,0.011 0.25356,0.0661 0.26458,0.0606 0.26458,0.30316 0,0.14332 -0.14331,0.23151 -0.10473,0.0661 -0.35278,0.0661 h -0.1819 -2.45842 -0.1819 q -0.24254,0 -0.36932,-0.0717 -0.12126,-0.0772 -0.12126,-0.226 0,-0.24253 0.26458,-0.30316 0.21497,-0.0551 0.25356,-0.0661 0.0386,-0.0165 0.0772,-0.0717 0.0827,-0.0937 0.0827,-0.30868 v -6.47678 z m 1.9072,0 v 2.25447 q 0,0.15985 -0.0937,0.25907 -0.0882,0.0992 -0.23151,0.0992 -0.13781,0 -0.23152,-0.0882 -0.0882,-0.0937 -0.11575,-0.25356 l -0.0551,-0.33624 q -0.0827,-0.51263 -0.31971,-0.88746 -0.14882,-0.23151 -0.40238,-0.38034 v -0.66697 z m -6.25078,0 h 1.4497 v 0.66697 q -0.25907,0.14883 -0.40239,0.38034 -0.23702,0.37483 -0.3197,0.88746 l -0.0551,0.33624 q -0.0276,0.15985 -0.12126,0.25356 -0.0882,0.0882 -0.226,0.0882 -0.14332,0 -0.23702,-0.0992 -0.0882,-0.0992 -0.0882,-0.25907 z"
           style="font-style:normal;font-variant:normal;font-weight:normal;font-stretch:normal;font-size:11.28888893px;font-family:Stencil;-inkscape-font-specification:'Stencil, Normal';font-variant-ligatures:normal;font-variant-caps:normal;font-variant-numeric:normal;font-feature-settings:normal;text-align:start;writing-mode:lr-tb;text-anchor:start;stroke-width:0.26458332"
           id="path864"
           inkscape:connector-curvature="0" />
        <path
           d="m 211.83787,106.30329 q -0.28112,0.0992 -0.39688,0.27009 -0.11575,0.17088 -0.11575,0.50161 v 4.92786 q 0,0.48507 0.13229,0.68351 0.10473,0.16536 0.38034,0.23702 v 0.60634 q -1.2237,-0.0992 -2.05052,-0.92053 -1.07487,-1.06936 -1.07487,-2.98208 0,-0.95911 0.28112,-1.73081 0.28663,-0.77722 0.84336,-1.31741 0.42443,-0.41341 0.91502,-0.62838 0.49058,-0.21498 1.08589,-0.24254 z m 0.452,0 v -0.59532 q 0.59531,0.0276 1.08589,0.24254 0.49609,0.21497 0.92053,0.62838 1.12448,1.09692 1.12448,3.04822 0,1.91272 -1.07487,2.98208 -0.82682,0.82682 -2.05603,0.92053 v -0.60634 q 0.14331,-0.0331 0.22048,-0.0827 0.0827,-0.0551 0.14883,-0.15434 0.14883,-0.226 0.14883,-0.68351 v -4.92786 q 0,-0.29215 -0.0992,-0.46302 -0.0661,-0.11576 -0.15985,-0.1819 -0.0882,-0.0662 -0.25907,-0.12678 z"
           style="font-style:normal;font-variant:normal;font-weight:normal;font-stretch:normal;font-size:11.28888893px;font-family:Stencil;-inkscape-font-specification:'Stencil, Normal';font-variant-ligatures:normal;font-variant-caps:normal;font-variant-numeric:normal;font-feature-settings:normal;text-align:start;writing-mode:lr-tb;text-anchor:start;stroke-width:0.26458332"
           id="path866"
           inkscape:connector-curvature="0" />
        <path
           d="m 219.00367,106.30329 q -0.28112,0.0992 -0.39688,0.27009 -0.11575,0.17088 -0.11575,0.50161 v 4.92786 q 0,0.48507 0.13229,0.68351 0.10473,0.16536 0.38034,0.23702 v 0.60634 q -1.2237,-0.0992 -2.05052,-0.92053 -1.07487,-1.06936 -1.07487,-2.98208 0,-0.95911 0.28112,-1.73081 0.28663,-0.77722 0.84336,-1.31741 0.42443,-0.41341 0.91501,-0.62838 0.49059,-0.21498 1.0859,-0.24254 z m 0.45199,0 v -0.59532 q 0.59532,0.0276 1.0859,0.24254 0.49609,0.21497 0.92053,0.62838 1.12448,1.09692 1.12448,3.04822 0,1.91272 -1.07487,2.98208 -0.82683,0.82682 -2.05604,0.92053 v -0.60634 q 0.14332,-0.0331 0.22049,-0.0827 0.0827,-0.0551 0.14883,-0.15434 0.14883,-0.226 0.14883,-0.68351 v -4.92786 q 0,-0.29215 -0.0992,-0.46302 -0.0662,-0.11576 -0.15985,-0.1819 -0.0882,-0.0662 -0.25908,-0.12678 z"
           style="font-style:normal;font-variant:normal;font-weight:normal;font-stretch:normal;font-size:11.28888893px;font-family:Stencil;-inkscape-font-specification:'Stencil, Normal';font-variant-ligatures:normal;font-variant-caps:normal;font-variant-numeric:normal;font-feature-settings:normal;text-align:start;writing-mode:lr-tb;text-anchor:start;stroke-width:0.26458332"
           id="path868"
           inkscape:connector-curvature="0" />
        <path
           d="m 226.27971,113.38089 h -2.45291 -0.14331 q -0.19844,0 -0.30869,-0.0717 -0.10473,-0.0772 -0.10473,-0.21497 0,-0.226 0.22049,-0.29766 0.1819,-0.0606 0.20946,-0.0717 0.0331,-0.0165 0.0661,-0.0661 0.0661,-0.0882 0.0661,-0.28112 v -5.51767 q 0,-0.19292 -0.0661,-0.28112 -0.0331,-0.0496 -0.0661,-0.0606 -0.0276,-0.0165 -0.20946,-0.0772 -0.22049,-0.0717 -0.22049,-0.29766 0,-0.1378 0.10473,-0.20946 0.11025,-0.0772 0.30869,-0.0772 h 0.14331 2.45842 0.18741 q 0.24254,0 0.34727,0.0661 0.14332,0.0882 0.14332,0.23151 0,0.24253 -0.26459,0.30317 -0.21497,0.0496 -0.25356,0.0661 -0.0386,0.0165 -0.0827,0.0662 -0.0827,0.0992 -0.0827,0.30868 z m 0.44648,0 v -0.61736 q 0.2701,-0.0496 0.42444,-0.11024 0.15985,-0.0606 0.30317,-0.17639 0.23151,-0.1819 0.42443,-0.50161 0.19293,-0.3197 0.3142,-0.71107 0.0882,-0.30317 0.15985,-0.39687 0.0772,-0.0992 0.22048,-0.0992 0.15434,0 0.226,0.12678 0.0331,0.0606 0.0331,0.24253 v 2.24345 z"
           style="font-style:normal;font-variant:normal;font-weight:normal;font-stretch:normal;font-size:11.28888893px;font-family:Stencil;-inkscape-font-specification:'Stencil, Normal';font-variant-ligatures:normal;font-variant-caps:normal;font-variant-numeric:normal;font-feature-settings:normal;text-align:start;writing-mode:lr-tb;text-anchor:start;stroke-width:0.26458332"
           id="path870"
           inkscape:connector-curvature="0" />
        <path
           d="m 231.83045,105.70797 v 0.6339 q -0.34176,0.0937 -0.52366,0.29214 -0.17639,0.19293 -0.17639,0.47956 0,0.27561 0.14883,0.48507 0.14883,0.20395 0.48507,0.39136 0.23151,0.12678 1.04731,0.48507 0.49609,0.21498 0.76619,0.39137 0.27561,0.17087 0.51814,0.42994 0.65044,0.68351 0.65044,1.62609 0,0.71107 -0.35278,1.30087 -0.35278,0.5898 -0.97014,0.92604 -0.33073,0.17639 -0.7276,0.27561 -0.39137,0.10473 -0.73312,0.10473 v -0.62839 q 0.47956,-0.11575 0.68902,-0.3197 0.21497,-0.20946 0.21497,-0.56224 0,-0.36932 -0.33073,-0.65044 -0.22048,-0.1819 -0.83784,-0.45199 -0.678,-0.29766 -0.93156,-0.42444 -0.24804,-0.12678 -0.47955,-0.29765 -1.03629,-0.73863 -1.03629,-1.96784 0,-0.62839 0.25907,-1.15756 0.25907,-0.53467 0.72209,-0.85989 0.64493,-0.452 1.59853,-0.50161 z m 0.43546,0.6339 v -0.60634 q 0.33073,0.0221 0.57326,0.0882 0.24254,0.0606 0.68902,0.24805 0.11024,0.0441 0.1819,0.0441 0.10473,0 0.15434,-0.0717 l 0.12127,-0.15985 q 0.0882,-0.12127 0.21497,-0.12127 0.14883,0 0.21498,0.11025 0.0717,0.10473 0.0717,0.33624 v 1.81901 q 0,0.15985 -0.0937,0.26458 -0.0882,0.0992 -0.23151,0.0992 -0.11024,0 -0.20395,-0.0717 -0.0496,-0.0441 -0.0827,-0.10473 -0.0276,-0.0661 -0.0551,-0.21497 -0.0606,-0.2701 -0.20947,-0.55673 -0.14882,-0.28663 -0.34726,-0.51263 -0.39688,-0.44648 -0.9977,-0.5898 z m -0.72209,6.55946 v 0.62839 q -0.452,0 -0.9977,-0.25907 -0.20395,-0.0937 -0.28112,-0.12127 -0.0772,-0.0276 -0.14883,-0.0276 -0.11024,0 -0.16537,0.0386 -0.0551,0.0331 -0.17639,0.17639 -0.0992,0.12127 -0.21497,0.12127 -0.30868,0 -0.30868,-0.47405 v -2.00642 q 0,-0.15434 0.0882,-0.25907 0.0882,-0.11024 0.22049,-0.11576 0.12127,-0.006 0.18741,0.0717 0.0717,0.0717 0.12127,0.25907 0.12678,0.47405 0.3638,0.88746 0.24254,0.41341 0.56224,0.70004 0.32522,0.29766 0.74966,0.38034 z"
           style="font-style:normal;font-variant:normal;font-weight:normal;font-stretch:normal;font-size:11.28888893px;font-family:Stencil;-inkscape-font-specification:'Stencil, Normal';font-variant-ligatures:normal;font-variant-caps:normal;font-variant-numeric:normal;font-feature-settings:normal;text-align:start;writing-mode:lr-tb;text-anchor:start;stroke-width:0.26458332"
           id="path872"
           inkscape:connector-curvature="0" />
      </g>
    </a>
  </g>
  <g
     inkscape:groupmode="layer"
     id="layer3"
     inkscape:label="lines"
     transform="translate(-293.88211,251.20952)">
    <path
       style="fill:none;stroke:#000000;stroke-width:0.6227988;stroke-linecap:round;stroke-linejoin:miter;stroke-miterlimit:4;stroke-dasharray:none;stroke-dashoffset:0;stroke-opacity:1"
       d="m 294.19794,-162.81348 h 171.86958 v 0"
       id="path6087"
       inkscape:connector-curvature="0" />
  </g>
</svg>
