<svg width="172.5mm" height="33.867mm" viewBox="0 0 172.5 33.867" xmlns="http://www.w3.org/2000/svg"><defs><pattern id="b" xlink:href="#a" patternTransform="matrix(10 0 0 10 -.18899 .094494)"/><pattern id="c" xlink:href="#a" patternTransform="matrix(10 0 0 10 -.18899 .094494)"/><pattern id="a" width="2" height="1" patternTransform="translate(0) scale(10)" patternUnits="userSpaceOnUse"><rect y="-.5" width="1" height="2"/></pattern></defs><rect x="7.7485" y="-266.47" width="362.48" height="195.79" fill="url(#c)" opacity=".266" stroke="url(#b)" stroke-width=".265"/><a transform="matrix(1.3394 0 0 1.3394 62.092 -356.35)"><g stroke-width=".26458" style="font-feature-settings:normal;font-variant-caps:normal;font-variant-ligatures:normal;font-variant-numeric:normal" aria-label="DEEP TOWN "><path d="m44.368 104.67v15.048h-5.1924q-0.39688 0-0.61736-0.14331-0.20946-0.15434-0.20946-0.42995 0-0.452 0.44097-0.59531 0.3638-0.12127 0.41892-0.14332 0.06615-0.0331 0.13229-0.13229 0.13229-0.17639 0.13229-0.56224v-11.035q0-0.38585-0.13229-0.56224-0.06615-0.0992-0.13229-0.12127-0.05512-0.0331-0.41892-0.15434-0.44097-0.14331-0.44097-0.59531 0-0.27561 0.20946-0.41892 0.22049-0.15434 0.61736-0.15434h0.28663zm2.2269 11.895v-8.6982q0-0.80477-0.23151-1.2788-0.14332-0.30869-0.35278-0.452-0.20946-0.14332-0.66146-0.24254v-1.2237q0.58429 0 0.99219 0.0441 1.4001 0.15434 2.712 1.1906 1.3009 1.0032 1.9293 2.6128 0.65043 1.6316 0.65043 3.616 0 2.249-0.82682 4.0018-0.82682 1.7418-2.3702 2.7451-0.74965 0.48507-1.4001 0.66145-0.63941 0.17639-1.6867 0.17639v-1.1906q0.46302-0.12127 0.63941-0.22049 0.18741-0.0992 0.3197-0.30868 0.16536-0.24253 0.22049-0.54019 0.06615-0.30868 0.06615-0.89297z" style="font-feature-settings:normal;font-variant-caps:normal;font-variant-ligatures:normal;font-variant-numeric:normal"/><path d="m59.008 104.67v15.048h-5.1924q-0.39688 0-0.61736-0.14331-0.20946-0.15434-0.20946-0.42995 0-0.452 0.44097-0.59531 0.3638-0.12127 0.41892-0.14332 0.06615-0.0331 0.13229-0.13229 0.13229-0.17639 0.13229-0.56224v-11.035q0-0.38585-0.13229-0.56224-0.06615-0.0992-0.13229-0.12127-0.05512-0.0331-0.41892-0.15434-0.44097-0.14331-0.44097-0.59531 0-0.27561 0.20946-0.41892 0.22049-0.15434 0.61736-0.15434h0.28663zm0.98116 0h4.4428v3.9026q0 0.34175-0.13229 0.49609t-0.41892 0.15434q-0.24254 0-0.35278-0.0992t-0.20946-0.4079q-0.41892-1.2788-1.2347-1.9513-0.80477-0.67248-2.0946-0.80477zm-0.05512 8.0257v-1.2788q0.63941-0.30868 0.94809-0.67248t0.452-0.97014q0.08819-0.41892 0.23151-0.57326 0.14332-0.16537 0.4079-0.16537 0.35278 0 0.48507 0.27561 0.07717 0.14331 0.07717 0.65043v4.2003q0 0.51815-0.12127 0.71658-0.11024 0.19844-0.41892 0.19844-0.25356 0-0.39688-0.15434t-0.23151-0.51814q-0.18741-0.76068-0.54019-1.1686-0.34175-0.4079-0.89297-0.54019zm0.06615 7.0225v-1.1906q0.71658-0.11025 1.1796-0.30868 0.47404-0.19844 0.94809-0.60634 0.47404-0.4079 0.74965-0.83785 0.28663-0.44097 0.54019-1.1576 0.12127-0.35278 0.25356-0.47404 0.13229-0.1323 0.3638-0.1323 0.30868 0 0.42995 0.18742 0.12127 0.17639 0.12127 0.62838v3.8916z" style="font-feature-settings:normal;font-variant-caps:normal;font-variant-ligatures:normal;font-variant-numeric:normal"/><path d="m72.281 104.67v15.048h-5.1924q-0.39688 0-0.61736-0.14331-0.20946-0.15434-0.20946-0.42995 0-0.452 0.44097-0.59531 0.3638-0.12127 0.41892-0.14332 0.06615-0.0331 0.13229-0.13229 0.13229-0.17639 0.13229-0.56224v-11.035q0-0.38585-0.13229-0.56224-0.06615-0.0992-0.13229-0.12127-0.05512-0.0331-0.41892-0.15434-0.44097-0.14331-0.44097-0.59531 0-0.27561 0.20946-0.41892 0.22049-0.15434 0.61736-0.15434h0.28663zm0.98116 0h4.4428v3.9026q0 0.34175-0.13229 0.49609t-0.41892 0.15434q-0.24254 0-0.35278-0.0992t-0.20946-0.4079q-0.41892-1.2788-1.2347-1.9513-0.80477-0.67248-2.0946-0.80477zm-0.05512 8.0257v-1.2788q0.63941-0.30868 0.94809-0.67248t0.452-0.97014q0.08819-0.41892 0.23151-0.57326 0.14332-0.16537 0.4079-0.16537 0.35278 0 0.48507 0.27561 0.07717 0.14331 0.07717 0.65043v4.2003q0 0.51815-0.12127 0.71658-0.11024 0.19844-0.41892 0.19844-0.25356 0-0.39688-0.15434t-0.23151-0.51814q-0.18741-0.76068-0.54019-1.1686-0.34175-0.4079-0.89297-0.54019zm0.06615 7.0225v-1.1906q0.71658-0.11025 1.1796-0.30868 0.47404-0.19844 0.94809-0.60634 0.47404-0.4079 0.74965-0.83785 0.28663-0.44097 0.54019-1.1576 0.12127-0.35278 0.25356-0.47404 0.13229-0.1323 0.3638-0.1323 0.30868 0 0.42995 0.18742 0.12127 0.17639 0.12127 0.62838v3.8916z" style="font-feature-settings:normal;font-variant-caps:normal;font-variant-ligatures:normal;font-variant-numeric:normal"/><path d="m85.555 104.67v12.954q0 0.42995 0.16536 0.61737 0.08819 0.11024 0.16536 0.14331 0.07717 0.022 0.50712 0.13229 0.52917 0.12127 0.52917 0.60634 0 0.28663-0.28663 0.46302-0.20946 0.13229-0.69453 0.13229h-5.5783q-0.39688 0-0.61736-0.14331-0.20946-0.15434-0.20946-0.42995 0-0.452 0.44097-0.59531 0.3638-0.12127 0.41892-0.14332 0.06615-0.0331 0.13229-0.13229 0.13229-0.17639 0.13229-0.56224v-11.035q0-0.38585-0.13229-0.56224-0.06615-0.0992-0.13229-0.12127-0.05512-0.0331-0.41892-0.15434-0.44097-0.14331-0.44097-0.59531 0-0.27561 0.20946-0.41892 0.22049-0.15434 0.61736-0.15434h0.28663zm0.93707 9.2825v-1.1796q0.47404-0.11024 0.66146-0.23151 0.19844-0.12127 0.34175-0.37483 0.23151-0.42994 0.23151-1.1576v-3.5278q0-0.51814-0.07717-0.7717t-0.30868-0.46302q-0.3197-0.30868-0.8599-0.38585v-1.1906q2.271 0 3.3514 0.42994 1.2457 0.4961 1.9734 1.5214 0.73863 1.0473 0.73863 2.5687 0 1.6977-0.74965 2.7781-0.74965 1.0694-2.0946 1.5765-1.1135 0.4079-3.2081 0.4079z" style="font-feature-settings:normal;font-variant-caps:normal;font-variant-ligatures:normal;font-variant-numeric:normal"/><path d="m107.79 104.67v12.954q0 0.42995 0.16536 0.61737 0.0882 0.11024 0.16537 0.14331 0.0772 0.022 0.50712 0.13229 0.52916 0.12127 0.52916 0.60634 0 0.28663-0.28663 0.46302-0.20946 0.13229-0.70556 0.13229h-5.6444q-0.48507 0-0.73863-0.14331-0.24253-0.15434-0.24253-0.452 0-0.48507 0.52916-0.60634 0.42995-0.11024 0.50712-0.13229 0.0772-0.0331 0.15434-0.14331 0.16537-0.18742 0.16537-0.61737v-12.954zm3.8144 0v4.5089q0 0.3197-0.18742 0.51814-0.17638 0.19844-0.46302 0.19844-0.2756 0-0.46302-0.17639-0.17639-0.18742-0.23151-0.50712l-0.11024-0.67248q-0.16536-1.0253-0.63941-1.7749-0.29766-0.46302-0.80477-0.76067v-1.3339zm-12.502 0h2.8994v1.3339q-0.51814 0.29765-0.80478 0.76067-0.47404 0.74966-0.63941 1.7749l-0.11024 0.67248q-0.0551 0.3197-0.24253 0.50712-0.17639 0.17639-0.452 0.17639-0.28663 0-0.47404-0.19844-0.17639-0.19844-0.17639-0.51814z" style="font-feature-settings:normal;font-variant-caps:normal;font-variant-ligatures:normal;font-variant-numeric:normal"/><path d="m118.76 105.57q-0.56224 0.19844-0.79375 0.5402-0.23151 0.34175-0.23151 1.0032v9.8557q0 0.97014 0.26458 1.367 0.20946 0.33073 0.76068 0.47405v1.2127q-2.4474-0.19844-4.101-1.8411-2.1497-2.1387-2.1497-5.9642 0-1.9182 0.56224-3.4616 0.57327-1.5544 1.6867-2.6348 0.84887-0.82682 1.83-1.2568 0.98116-0.42995 2.1718-0.48507zm0.90399 0v-1.1906q1.1906 0.0551 2.1718 0.48507 0.99218 0.42995 1.8411 1.2568 2.249 2.1938 2.249 6.0964 0 3.8254-2.1497 5.9642-1.6536 1.6536-4.1121 1.8411v-1.2127q0.28663-0.0662 0.44097-0.16537 0.16537-0.11024 0.29766-0.30868 0.29765-0.452 0.29765-1.367v-9.8557q0-0.58429-0.19843-0.92604-0.1323-0.23151-0.31971-0.36381-0.17639-0.13229-0.51814-0.25356z" style="font-feature-settings:normal;font-variant-caps:normal;font-variant-ligatures:normal;font-variant-numeric:normal"/><path d="m134.98 114.39-1.3339 5.3358h-2.3812l-3.5498-12.954q-0.12127-0.44097-0.23151-0.59531-0.0992-0.15434-0.35278-0.25356-0.44097-0.17639-0.44097-0.58429 0-0.3197 0.27561-0.48507 0.27561-0.17638 0.7717-0.17638h5.1594q0.48506 0 0.66145 0.13229 0.23151 0.16536 0.23151 0.45199 0 0.34176-0.38585 0.57327-0.3197 0.18741-0.41892 0.3197-0.0882 0.12127-0.0882 0.37483 0 0.12127 0.0331 0.24253zm1.0473-9.7124h2.271l2.6458 10.032-1.2568 5.0161h-2.4033l-2.5687-9.6904zm5.3358 8.2682-0.57326-2.2379 0.80477-3.2632q0.0992-0.38585 0.0992-0.59532 0-0.33073-0.18741-0.56224-0.17639-0.24253-0.59531-0.45199-0.27561-0.14332-0.38586-0.27561-0.0992-0.13229-0.0992-0.34175 0-0.28664 0.17638-0.4079 0.18742-0.13229 0.58429-0.13229h2.6238q0.45199 0 0.62838 0.13229 0.18742 0.12126 0.18742 0.41892 0 0.17639-0.0992 0.29766-0.0882 0.11024-0.30868 0.20946-0.4961 0.22049-0.72761 0.46302-0.50712 0.50712-0.76067 1.4662z" style="font-feature-settings:normal;font-variant-caps:normal;font-variant-ligatures:normal;font-variant-numeric:normal"/><path d="m152.1 104.67 5.8649 10.186v4.8617h-3.0096l-7.4855-12.898q-0.24253-0.41893-0.39687-0.58429-0.15434-0.16537-0.39688-0.24254l-0.41892-0.15434q-0.16537-0.0551-0.26458-0.19844-0.0992-0.14331-0.0992-0.3197 0-0.18741 0.0992-0.34175 0.0992-0.16537 0.26458-0.23151 0.18741-0.0772 1.0142-0.0772zm-4.6192 3.8695 1.1686 1.9403v5.909q0 0.7717 0.25356 1.2678 0.26459 0.49609 0.82683 0.8158l0.33072 0.18741q0.28664 0.16536 0.28664 0.49609 0 0.25356-0.20947 0.41893-0.17638 0.14331-0.7276 0.14331h-2.5466q-1.0032 0-1.0032-0.57326 0-0.19844 0.0992-0.30868 0.11025-0.12127 0.46302-0.31971 1.0583-0.58428 1.0583-2.1277zm10.484 4.553-1.1686-1.9734v-3.0537q0-0.92604-0.27561-1.4111-0.26459-0.49609-0.94809-0.84887-0.23151-0.11024-0.31971-0.23151-0.0882-0.13229-0.0882-0.33073 0-0.29766 0.18741-0.42995 0.19844-0.14331 0.62839-0.14331h2.7561q0.56224 0 0.73863 0.17638 0.18741 0.17639 0.18741 0.41893 0 0.23151-0.11024 0.35278-0.0992 0.11024-0.49609 0.30868-0.58429 0.29765-0.88195 0.91501-0.20946 0.452-0.20946 1.2237z" style="font-feature-settings:normal;font-variant-caps:normal;font-variant-ligatures:normal;font-variant-numeric:normal"/></a><a transform="matrix(1.3394 0 0 1.3394 -72.239 -334.75)"><path d="m166.41 105.86h2.2214l1.5324 6.4768q0.0441 0.17088 0.0992 0.30317 0.0496 0.10473 0.22049 0.17088 0.14331 0.0606 0.19844 0.12126 0.0551 0.0606 0.0551 0.16537 0 0.28663-0.42995 0.28663h-2.7506q-0.16536 0-0.26458-0.0772-0.0992-0.0827-0.0992-0.21497 0-0.11025 0.0441-0.16537 0.0441-0.0551 0.19844-0.1378 0.11024-0.0551 0.15434-0.12127 0.0441-0.0662 0.0441-0.16536 0-0.0937-0.0165-0.16537l-0.17639-0.79926h-1.5379l0.14883-0.65595h1.2347l-1.0142-4.4814zm-0.38034 1.4001 0.28112 1.141-0.97565 3.5608q-0.0441 0.15434-0.0441 0.28664 0 0.34726 0.32522 0.49609l0.19292 0.0882q0.1819 0.0827 0.1819 0.27561 0 0.27561-0.40238 0.27561h-1.4001q-0.20395 0-0.32522-0.0827-0.11575-0.0882-0.11575-0.23702 0-0.15986 0.24253-0.26459 0.226-0.0992 0.33073-0.17639 0.11024-0.0827 0.20946-0.22048 0.15434-0.226 0.25356-0.60083z" style="font-feature-settings:normal;font-variant-caps:normal;font-variant-ligatures:normal;font-variant-numeric:normal"/><path d="m174.2 105.86v7.5241h-2.5962q-0.19844 0-0.30869-0.0717-0.10473-0.0772-0.10473-0.21497 0-0.226 0.22049-0.29766 0.1819-0.0606 0.20946-0.0717 0.0331-0.0165 0.0662-0.0661 0.0661-0.0882 0.0661-0.28112v-5.5177q0-0.19292-0.0661-0.28112-0.0331-0.0496-0.0662-0.0606-0.0276-0.0165-0.20946-0.0772-0.22049-0.0717-0.22049-0.29766 0-0.1378 0.10473-0.20946 0.11025-0.0772 0.30869-0.0772h0.14331zm1.1134 5.9476v-4.3491q0-0.40239-0.11575-0.63941-0.0717-0.15434-0.17639-0.226-0.10473-0.0717-0.33073-0.12127v-0.61185q0.29214 0 0.49609 0.022 0.70005 0.0772 1.356 0.59531 0.65044 0.50161 0.96463 1.3064 0.32522 0.8158 0.32522 1.808 0 1.1245-0.41341 2.0009-0.41341 0.87092-1.1851 1.3725-0.37482 0.24253-0.70004 0.33073-0.3197 0.0882-0.84336 0.0882v-0.59531q0.23151-0.0606 0.31971-0.11025 0.0937-0.0496 0.15985-0.15434 0.0827-0.12126 0.11024-0.27009 0.0331-0.15434 0.0331-0.44649z" style="font-feature-settings:normal;font-variant-caps:normal;font-variant-ligatures:normal;font-variant-numeric:normal"/><path d="m183.44 105.86h2.5962q0.41341 0 0.41341 0.28663 0 0.226-0.22048 0.29766-0.1819 0.0606-0.21498 0.0772-0.0276 0.011-0.0606 0.0606-0.0661 0.0882-0.0661 0.28112v5.5177q0 0.19292 0.0661 0.28112 0.0331 0.0496 0.0606 0.0661 0.0331 0.011 0.21498 0.0717 0.22048 0.0717 0.22048 0.29766 0 0.28663-0.41341 0.28663h-2.7836q-0.24253 0-0.36931-0.0717-0.12127-0.0772-0.12127-0.226 0-0.24253 0.26459-0.30316 0.21497-0.0551 0.25356-0.0661 0.0386-0.0165 0.0772-0.0662 0.0827-0.0992 0.0827-0.31419zm-2.0285 0 1.0859 3.0923 0.47956-1.6702v1.83l-1.2733 4.2719h-0.29214l-2.1387-6.3445q-0.11024-0.3197-0.23151-0.42995-0.0717-0.0716-0.24805-0.10473-0.35829-0.0772-0.35829-0.34175 0-0.14332 0.0992-0.22049 0.10473-0.0827 0.29766-0.0827zm-2.1387 2.5356 0.58429 1.6647v1.6592q0 0.25356 0.0165 0.3638 0.022 0.11024 0.0882 0.24254 0.11575 0.24253 0.3197 0.3638l0.20395 0.13229q0.20947 0.12678 0.20947 0.28112 0 0.28112-0.41342 0.28112h-1.3836q-0.41341 0-0.41341-0.27561 0-0.0882 0.0331-0.13229 0.0386-0.0496 0.14331-0.11024 0.61185-0.33073 0.61185-1.1465z" style="font-feature-settings:normal;font-variant-caps:normal;font-variant-ligatures:normal;font-variant-numeric:normal"/><path d="m190.37 113.38h-2.6017q-0.19844 0-0.30868-0.0717-0.10474-0.0772-0.10474-0.21497 0-0.226 0.22049-0.29766 0.1819-0.0606 0.20946-0.0717 0.0331-0.0165 0.0662-0.0661 0.0661-0.0882 0.0661-0.28112v-5.5177q0-0.19292-0.0661-0.28112-0.0331-0.0496-0.0662-0.0606-0.0276-0.0165-0.20946-0.0772-0.22049-0.0717-0.22049-0.29766 0-0.1378 0.10474-0.20946 0.11024-0.0772 0.30868-0.0772h2.745q0.19844 0 0.30317 0.0772 0.11024 0.0717 0.11024 0.20946 0 0.226-0.22049 0.29766-0.1819 0.0606-0.21497 0.0772-0.0276 0.011-0.0606 0.0606-0.0662 0.0882-0.0662 0.28112v5.5177q0 0.19292 0.0662 0.28112 0.0331 0.0496 0.0606 0.0661 0.0331 0.011 0.21497 0.0717 0.22049 0.0717 0.22049 0.29766 0 0.1378-0.11024 0.21497-0.10473 0.0717-0.30317 0.0717z" style="font-feature-settings:normal;font-variant-caps:normal;font-variant-ligatures:normal;font-variant-numeric:normal"/><path d="m194.95 105.86 2.9325 5.0932v2.4309h-1.5048l-3.7428-6.4492q-0.12127-0.20946-0.19844-0.29214-0.0772-0.0827-0.19844-0.12127l-0.20946-0.0772q-0.0827-0.0276-0.13229-0.0992-0.0496-0.0717-0.0496-0.15985 0-0.0937 0.0496-0.17088 0.0496-0.0827 0.13229-0.11575 0.0937-0.0386 0.50712-0.0386zm-2.3096 1.9348 0.58429 0.97014v2.9545q0 0.38585 0.12678 0.6339 0.13229 0.24804 0.41341 0.4079l0.16536 0.0937q0.14332 0.0827 0.14332 0.24805 0 0.12678-0.10473 0.20946-0.0882 0.0717-0.3638 0.0717h-1.2733q-0.50161 0-0.50161-0.28663 0-0.0992 0.0496-0.15434 0.0551-0.0606 0.23151-0.15985 0.52917-0.29215 0.52917-1.0638zm5.2421 2.2765-0.58429-0.98668v-1.5269q0-0.46302-0.13781-0.70555-0.13229-0.24805-0.47404-0.42444-0.11576-0.0551-0.15985-0.11575-0.0441-0.0662-0.0441-0.16537 0-0.14882 0.0937-0.21497 0.0992-0.0717 0.31419-0.0717h1.378q0.28112 0 0.36931 0.0882 0.0937 0.0882 0.0937 0.20946 0 0.11575-0.0551 0.17639-0.0496 0.0551-0.24805 0.15434-0.29214 0.14882-0.44097 0.45751-0.10473 0.22599-0.10473 0.61184z" style="font-feature-settings:normal;font-variant-caps:normal;font-variant-ligatures:normal;font-variant-numeric:normal"/><path d="m206.35 105.86v6.4768q0 0.21497 0.0827 0.30868 0.0441 0.0551 0.0827 0.0717 0.0386 0.011 0.25356 0.0661 0.26458 0.0606 0.26458 0.30316 0 0.14332-0.14331 0.23151-0.10473 0.0661-0.35278 0.0661h-2.8222q-0.24254 0-0.36932-0.0717-0.12126-0.0772-0.12126-0.226 0-0.24253 0.26458-0.30316 0.21497-0.0551 0.25356-0.0661 0.0386-0.0165 0.0772-0.0717 0.0827-0.0937 0.0827-0.30868v-6.4768zm1.9072 0v2.2545q0 0.15985-0.0937 0.25907-0.0882 0.0992-0.23151 0.0992-0.13781 0-0.23152-0.0882-0.0882-0.0937-0.11575-0.25356l-0.0551-0.33624q-0.0827-0.51263-0.31971-0.88746-0.14882-0.23151-0.40238-0.38034v-0.66697zm-6.2508 0h1.4497v0.66697q-0.25907 0.14883-0.40239 0.38034-0.23702 0.37483-0.3197 0.88746l-0.0551 0.33624q-0.0276 0.15985-0.12126 0.25356-0.0882 0.0882-0.226 0.0882-0.14332 0-0.23702-0.0992-0.0882-0.0992-0.0882-0.25907z" style="font-feature-settings:normal;font-variant-caps:normal;font-variant-ligatures:normal;font-variant-numeric:normal"/><path d="m211.84 106.3q-0.28112 0.0992-0.39688 0.27009-0.11575 0.17088-0.11575 0.50161v4.9279q0 0.48507 0.13229 0.68351 0.10473 0.16536 0.38034 0.23702v0.60634q-1.2237-0.0992-2.0505-0.92053-1.0749-1.0694-1.0749-2.9821 0-0.95911 0.28112-1.7308 0.28663-0.77722 0.84336-1.3174 0.42443-0.41341 0.91502-0.62838 0.49058-0.21498 1.0859-0.24254zm0.452 0v-0.59532q0.59531 0.0276 1.0859 0.24254 0.49609 0.21497 0.92053 0.62838 1.1245 1.0969 1.1245 3.0482 0 1.9127-1.0749 2.9821-0.82682 0.82682-2.056 0.92053v-0.60634q0.14331-0.0331 0.22048-0.0827 0.0827-0.0551 0.14883-0.15434 0.14883-0.226 0.14883-0.68351v-4.9279q0-0.29215-0.0992-0.46302-0.0661-0.11576-0.15985-0.1819-0.0882-0.0662-0.25907-0.12678z" style="font-feature-settings:normal;font-variant-caps:normal;font-variant-ligatures:normal;font-variant-numeric:normal"/><path d="m219 106.3q-0.28112 0.0992-0.39688 0.27009-0.11575 0.17088-0.11575 0.50161v4.9279q0 0.48507 0.13229 0.68351 0.10473 0.16536 0.38034 0.23702v0.60634q-1.2237-0.0992-2.0505-0.92053-1.0749-1.0694-1.0749-2.9821 0-0.95911 0.28112-1.7308 0.28663-0.77722 0.84336-1.3174 0.42443-0.41341 0.91501-0.62838 0.49059-0.21498 1.0859-0.24254zm0.45199 0v-0.59532q0.59532 0.0276 1.0859 0.24254 0.49609 0.21497 0.92053 0.62838 1.1245 1.0969 1.1245 3.0482 0 1.9127-1.0749 2.9821-0.82683 0.82682-2.056 0.92053v-0.60634q0.14332-0.0331 0.22049-0.0827 0.0827-0.0551 0.14883-0.15434 0.14883-0.226 0.14883-0.68351v-4.9279q0-0.29215-0.0992-0.46302-0.0662-0.11576-0.15985-0.1819-0.0882-0.0662-0.25908-0.12678z" style="font-feature-settings:normal;font-variant-caps:normal;font-variant-ligatures:normal;font-variant-numeric:normal"/><path d="m226.28 113.38h-2.5962q-0.19844 0-0.30869-0.0717-0.10473-0.0772-0.10473-0.21497 0-0.226 0.22049-0.29766 0.1819-0.0606 0.20946-0.0717 0.0331-0.0165 0.0661-0.0661 0.0661-0.0882 0.0661-0.28112v-5.5177q0-0.19292-0.0661-0.28112-0.0331-0.0496-0.0661-0.0606-0.0276-0.0165-0.20946-0.0772-0.22049-0.0717-0.22049-0.29766 0-0.1378 0.10473-0.20946 0.11025-0.0772 0.30869-0.0772h2.7891q0.24254 0 0.34727 0.0661 0.14332 0.0882 0.14332 0.23151 0 0.24253-0.26459 0.30317-0.21497 0.0496-0.25356 0.0661-0.0386 0.0165-0.0827 0.0662-0.0827 0.0992-0.0827 0.30868zm0.44648 0v-0.61736q0.2701-0.0496 0.42444-0.11024 0.15985-0.0606 0.30317-0.17639 0.23151-0.1819 0.42443-0.50161 0.19293-0.3197 0.3142-0.71107 0.0882-0.30317 0.15985-0.39687 0.0772-0.0992 0.22048-0.0992 0.15434 0 0.226 0.12678 0.0331 0.0606 0.0331 0.24253v2.2434z" style="font-feature-settings:normal;font-variant-caps:normal;font-variant-ligatures:normal;font-variant-numeric:normal"/><path d="m231.83 105.71v0.6339q-0.34176 0.0937-0.52366 0.29214-0.17639 0.19293-0.17639 0.47956 0 0.27561 0.14883 0.48507 0.14883 0.20395 0.48507 0.39136 0.23151 0.12678 1.0473 0.48507 0.49609 0.21498 0.76619 0.39137 0.27561 0.17087 0.51814 0.42994 0.65044 0.68351 0.65044 1.6261 0 0.71107-0.35278 1.3009t-0.97014 0.92604q-0.33073 0.17639-0.7276 0.27561-0.39137 0.10473-0.73312 0.10473v-0.62839q0.47956-0.11575 0.68902-0.3197 0.21497-0.20946 0.21497-0.56224 0-0.36932-0.33073-0.65044-0.22048-0.1819-0.83784-0.45199-0.678-0.29766-0.93156-0.42444-0.24804-0.12678-0.47955-0.29765-1.0363-0.73863-1.0363-1.9678 0-0.62839 0.25907-1.1576 0.25907-0.53467 0.72209-0.85989 0.64493-0.452 1.5985-0.50161zm0.43546 0.6339v-0.60634q0.33073 0.0221 0.57326 0.0882 0.24254 0.0606 0.68902 0.24805 0.11024 0.0441 0.1819 0.0441 0.10473 0 0.15434-0.0717l0.12127-0.15985q0.0882-0.12127 0.21497-0.12127 0.14883 0 0.21498 0.11025 0.0717 0.10473 0.0717 0.33624v1.819q0 0.15985-0.0937 0.26458-0.0882 0.0992-0.23151 0.0992-0.11024 0-0.20395-0.0717-0.0496-0.0441-0.0827-0.10473-0.0276-0.0661-0.0551-0.21497-0.0606-0.2701-0.20947-0.55673-0.14882-0.28663-0.34726-0.51263-0.39688-0.44648-0.9977-0.5898zm-0.72209 6.5595v0.62839q-0.452 0-0.9977-0.25907-0.20395-0.0937-0.28112-0.12127-0.0772-0.0276-0.14883-0.0276-0.11024 0-0.16537 0.0386-0.0551 0.0331-0.17639 0.17639-0.0992 0.12127-0.21497 0.12127-0.30868 0-0.30868-0.47405v-2.0064q0-0.15434 0.0882-0.25907 0.0882-0.11024 0.22049-0.11576 0.12127-6e-3 0.18741 0.0717 0.0717 0.0717 0.12127 0.25907 0.12678 0.47405 0.3638 0.88746 0.24254 0.41341 0.56224 0.70004 0.32522 0.29766 0.74966 0.38034z" style="font-feature-settings:normal;font-variant-caps:normal;font-variant-ligatures:normal;font-variant-numeric:normal"/></a></g><path d="m109.2-194.56h171.87v0" fill="none" stroke="#000" stroke-linecap="round" stroke-width=".6228"/></svg>